<svg width="61" height="39" viewBox="0 0 61 39" fill="none" xmlns="http://www.w3.org/2000/svg">
<rect x="0.5" y="0.5" width="60" height="38" rx="19" stroke="#FF9E19"/>
<path d="M26.3237 20.14H23.1587V23.335H21.8237V20.14H18.6737V18.895H21.8237V15.685H23.1587V18.895H26.3237V20.14Z" fill="#FF9E19"/>
<path d="M32.5042 28C32.0913 28 31.738 27.8435 31.4442 27.5304C31.1504 27.2173 31.0033 26.8405 31.0028 26.4C31.0028 25.96 31.1499 25.5835 31.4442 25.2704C31.7385 24.9573 32.0918 24.8005 32.5042 24.8C32.917 24.8 33.2706 24.9568 33.5649 25.2704C33.8592 25.584 34.006 25.9605 34.0055 26.4C34.0055 26.84 33.8587 27.2168 33.5649 27.5304C33.2711 27.844 32.9175 28.0005 32.5042 28ZM40.0111 28C39.5982 28 39.2449 27.8435 38.9511 27.5304C38.6573 27.2173 38.5102 26.8405 38.5097 26.4C38.5097 25.96 38.6568 25.5835 38.9511 25.2704C39.2454 24.9573 39.5987 24.8005 40.0111 24.8C40.424 24.8 40.7776 24.9568 41.0718 25.2704C41.3661 25.584 41.513 25.9605 41.5125 26.4C41.5125 26.84 41.3656 27.2168 41.0718 27.5304C40.7781 27.844 40.4245 28.0005 40.0111 28ZM31.8661 15.2L33.6677 19.2H38.9226L40.987 15.2H31.8661ZM31.1529 13.6H42.2256C42.5134 13.6 42.7324 13.7368 42.8825 14.0104C43.0326 14.284 43.0389 14.5605 42.9013 14.84L40.2363 19.96C40.0987 20.2267 39.9143 20.4333 39.683 20.58C39.4518 20.7267 39.1983 20.8 38.9226 20.8H33.3299L32.5042 22.4H41.5125V24H32.5042C31.9411 24 31.5157 23.7368 31.228 23.2104C30.9402 22.684 30.9277 22.1605 31.1904 21.64L32.2039 19.68L29.5014 13.6H28V12H30.4398L31.1529 13.6Z" fill="#FF9E19"/>
</svg>
