<svg width="64" height="39" viewBox="0 0 64 39" fill="none" xmlns="http://www.w3.org/2000/svg">
<rect x="0.5" y="0.5" width="63" height="38" rx="19" fill="#FF9E19"/>
<rect x="0.5" y="0.5" width="63" height="38" rx="19" stroke="#FF9E19"/>
<path d="M28.3354 20.095H25.1404V23.335H23.8654V20.095H20.6854V18.94H23.8654V15.685H25.1404V18.94H28.3354V20.095Z" fill="white"/>
<path d="M34.5042 28C34.0913 28 33.738 27.8435 33.4442 27.5304C33.1504 27.2173 33.0033 26.8405 33.0028 26.4C33.0028 25.96 33.1499 25.5835 33.4442 25.2704C33.7385 24.9573 34.0918 24.8005 34.5042 24.8C34.917 24.8 35.2706 24.9568 35.5649 25.2704C35.8592 25.584 36.006 25.9605 36.0055 26.4C36.0055 26.84 35.8587 27.2168 35.5649 27.5304C35.2711 27.844 34.9175 28.0005 34.5042 28ZM42.0111 28C41.5982 28 41.2449 27.8435 40.9511 27.5304C40.6573 27.2173 40.5102 26.8405 40.5097 26.4C40.5097 25.96 40.6568 25.5835 40.9511 25.2704C41.2454 24.9573 41.5987 24.8005 42.0111 24.8C42.424 24.8 42.7776 24.9568 43.0718 25.2704C43.3661 25.584 43.513 25.9605 43.5125 26.4C43.5125 26.84 43.3656 27.2168 43.0718 27.5304C42.7781 27.844 42.4245 28.0005 42.0111 28ZM33.8661 15.2L35.6677 19.2H40.9226L42.987 15.2H33.8661ZM33.1529 13.6H44.2256C44.5134 13.6 44.7324 13.7368 44.8825 14.0104C45.0326 14.284 45.0389 14.5605 44.9013 14.84L42.2363 19.96C42.0987 20.2267 41.9143 20.4333 41.683 20.58C41.4518 20.7267 41.1983 20.8 40.9226 20.8H35.3299L34.5042 22.4H43.5125V24H34.5042C33.9411 24 33.5157 23.7368 33.228 23.2104C32.9402 22.684 32.9277 22.1605 33.1904 21.64L34.2039 19.68L31.5014 13.6H30V12H32.4398L33.1529 13.6Z" fill="white"/>
</svg>
